<svg xmlns="http://www.w3.org/2000/svg" viewBox="0 0 64 64">
  <defs>
    <linearGradient id="g" x1="0" y1="0" x2="1" y2="1">
      <stop offset="0%" stop-color="#d4a93c"/>
      <stop offset="100%" stop-color="#c49520"/>
    </linearGradient>
  </defs>
  <rect width="64" height="64" rx="14" fill="#0a0f0a"/>
  <g transform="translate(32,33)">
    <!-- Shield outline -->
    <path d="M0-20L18-13V4C18 12 10 19 0 21C-10 19-18 12-18 4V-13Z"
          fill="none" stroke="url(#g)" stroke-width="2.5" stroke-linejoin="round"/>
    <path d="M0-20L18-13V4C18 12 10 19 0 21C-10 19-18 12-18 4V-13Z"
          fill="url(#g)" fill-opacity="0.08"/>
    <!-- Scope ring -->
    <circle cx="0" cy="0" r="8" fill="none" stroke="url(#g)" stroke-width="2"/>
    <!-- Center dot -->
    <circle cx="0" cy="0" r="2.5" fill="url(#g)"/>
    <!-- Crosshair ticks -->
    <line x1="0" y1="-14" x2="0" y2="-10" stroke="url(#g)" stroke-width="1.5" stroke-linecap="round"/>
    <line x1="0" y1="10" x2="0" y2="14" stroke="url(#g)" stroke-width="1.5" stroke-linecap="round"/>
    <line x1="-13" y1="0" x2="-10" y2="0" stroke="url(#g)" stroke-width="1.5" stroke-linecap="round"/>
    <line x1="10" y1="0" x2="13" y2="0" stroke="url(#g)" stroke-width="1.5" stroke-linecap="round"/>
  </g>
</svg>
