<svg width="800" height="600" viewBox="0 0 800 600" xmlns="http://www.w3.org/2000/svg">
  <defs>
    <!-- Ukrainian flag gradient -->
    <linearGradient id="ukrainianGradient" x1="0%" y1="0%" x2="100%" y2="100%">
      <stop offset="0%" style="stop-color:#0057B8;stop-opacity:0.8" />
      <stop offset="50%" style="stop-color:#FFD700;stop-opacity:0.6" />
      <stop offset="100%" style="stop-color:#0057B8;stop-opacity:0.8" />
    </linearGradient>
    
    <!-- Glow filter -->
    <filter id="glow" x="-50%" y="-50%" width="200%" height="200%">
      <feGaussianBlur stdDeviation="3" result="coloredBlur"/>
      <feMerge> 
        <feMergeNode in="coloredBlur"/>
        <feMergeNode in="SourceGraphic"/>
      </feMerge>
    </filter>
  </defs>
  
  <!-- Main periscope body -->
  <g transform="translate(400, 300)">
    <!-- Base platform -->
    <ellipse cx="0" cy="200" rx="120" ry="20" fill="url(#ukrainianGradient)" opacity="0.3"/>
    
    <!-- Main vertical tube -->
    <rect x="-15" y="-150" width="30" height="300" fill="url(#ukrainianGradient)" opacity="0.4"/>
    
    <!-- Horizontal viewing tube -->
    <rect x="-150" y="-20" width="300" height="40" fill="url(#ukrainianGradient)" opacity="0.4"/>
    
    <!-- Top viewing head -->
    <circle cx="0" cy="-170" r="25" fill="url(#ukrainianGradient)" opacity="0.5"/>
    
    <!-- Side viewing ports -->
    <circle cx="-140" cy="0" r="15" fill="url(#ukrainianGradient)" opacity="0.4"/>
    <circle cx="140" cy="0" r="15" fill="url(#ukrainianGradient)" opacity="0.4"/>
    
    <!-- Support structures -->
    <rect x="-20" y="-100" width="40" height="10" fill="url(#ukrainianGradient)" opacity="0.3"/>
    <rect x="-20" y="50" width="40" height="10" fill="url(#ukrainianGradient)" opacity="0.3"/>
    
    <!-- Decorative elements -->
    <circle cx="-80" cy="-120" r="8" fill="url(#ukrainianGradient)" opacity="0.3"/>
    <circle cx="80" cy="-120" r="8" fill="url(#ukrainianGradient)" opacity="0.3"/>
    <circle cx="-80" cy="120" r="8" fill="url(#ukrainianGradient)" opacity="0.3"/>
    <circle cx="80" cy="120" r="8" fill="url(#ukrainianGradient)" opacity="0.3"/>
    
    <!-- Connection lines -->
    <line x1="-80" y1="-120" x2="-140" y2="0" stroke="url(#ukrainianGradient)" stroke-width="2" opacity="0.2"/>
    <line x1="80" y1="-120" x2="140" y2="0" stroke="url(#ukrainianGradient)" stroke-width="2" opacity="0.2"/>
    <line x1="-80" y1="120" x2="-140" y2="0" stroke="url(#ukrainianGradient)" stroke-width="2" opacity="0.2"/>
    <line x1="80" y1="120" x2="140" y2="0" stroke="url(#ukrainianGradient)" stroke-width="2" opacity="0.2"/>
    
    <!-- Light rays effect -->
    <g opacity="0.1">
      <line x1="-200" y1="-200" x2="-100" y2="-100" stroke="url(#ukrainianGradient)" stroke-width="3"/>
      <line x1="200" y1="-200" x2="100" y2="-100" stroke="url(#ukrainianGradient)" stroke-width="3"/>
      <line x1="-200" y1="200" x2="-100" y2="100" stroke="url(#ukrainianGradient)" stroke-width="3"/>
      <line x1="200" y1="200" x2="100" y2="100" stroke="url(#ukrainianGradient)" stroke-width="3"/>
    </g>
  </g>
</svg> 